<mxfile host="app.diagrams.net" modified="2022-09-15T22:20:36.126Z" agent="5.0 (Windows NT 10.0; Win64; x64) AppleWebKit/537.36 (KHTML, like Gecko) Chrome/105.0.0.0 Safari/537.36" etag="qc7ThYulppS-gziD-BVQ" version="20.3.1" type="github">
  <diagram id="6_acY6-9k6HeERfGbPWs" name="Page-1">
    <mxGraphModel dx="1185" dy="697" grid="1" gridSize="10" guides="1" tooltips="1" connect="1" arrows="1" fold="1" page="1" pageScale="1" pageWidth="850" pageHeight="1100" math="0" shadow="0">
      <root>
        <mxCell id="0" />
        <mxCell id="1" parent="0" />
        <mxCell id="TdoCK_8WhqVqBl0hMc1Z-3" value="" style="edgeStyle=orthogonalEdgeStyle;rounded=0;orthogonalLoop=1;jettySize=auto;html=1;" parent="1" source="OZUVgrPeMeW1dvuewmTe-1" target="TdoCK_8WhqVqBl0hMc1Z-1" edge="1">
          <mxGeometry relative="1" as="geometry" />
        </mxCell>
        <mxCell id="OZUVgrPeMeW1dvuewmTe-1" value="Inicio" style="ellipse;whiteSpace=wrap;html=1;" parent="1" vertex="1">
          <mxGeometry x="130" y="50" width="60" height="40" as="geometry" />
        </mxCell>
        <mxCell id="OZUVgrPeMeW1dvuewmTe-2" value="Fin" style="ellipse;whiteSpace=wrap;html=1;" parent="1" vertex="1">
          <mxGeometry x="340" y="410" width="50" height="40" as="geometry" />
        </mxCell>
        <mxCell id="TdoCK_8WhqVqBl0hMc1Z-5" value="" style="edgeStyle=orthogonalEdgeStyle;rounded=0;orthogonalLoop=1;jettySize=auto;html=1;" parent="1" source="TdoCK_8WhqVqBl0hMc1Z-1" target="TdoCK_8WhqVqBl0hMc1Z-4" edge="1">
          <mxGeometry relative="1" as="geometry" />
        </mxCell>
        <mxCell id="TdoCK_8WhqVqBl0hMc1Z-1" value="x0 = float&lt;br&gt;n = int&lt;br&gt;xi = float[n]&lt;br&gt;yi = float[n]" style="shape=parallelogram;perimeter=parallelogramPerimeter;whiteSpace=wrap;html=1;fixedSize=1;" parent="1" vertex="1">
          <mxGeometry x="107.5" y="110" width="105" height="60" as="geometry" />
        </mxCell>
        <mxCell id="TdoCK_8WhqVqBl0hMc1Z-7" value="" style="edgeStyle=orthogonalEdgeStyle;rounded=0;orthogonalLoop=1;jettySize=auto;html=1;" parent="1" source="TdoCK_8WhqVqBl0hMc1Z-4" target="TdoCK_8WhqVqBl0hMc1Z-6" edge="1">
          <mxGeometry relative="1" as="geometry" />
        </mxCell>
        <mxCell id="TdoCK_8WhqVqBl0hMc1Z-4" value="total_sum = float[n]" style="rounded=0;whiteSpace=wrap;html=1;" parent="1" vertex="1">
          <mxGeometry x="95" y="190" width="130" height="30" as="geometry" />
        </mxCell>
        <mxCell id="TdoCK_8WhqVqBl0hMc1Z-6" value="i &amp;lt; n" style="whiteSpace=wrap;html=1;rounded=0;" parent="1" vertex="1">
          <mxGeometry x="100" y="240" width="120" height="60" as="geometry" />
        </mxCell>
        <mxCell id="TdoCK_8WhqVqBl0hMc1Z-8" value="" style="endArrow=none;html=1;rounded=0;entryX=1;entryY=0;entryDx=0;entryDy=0;exitX=0;exitY=0.5;exitDx=0;exitDy=0;" parent="1" source="TdoCK_8WhqVqBl0hMc1Z-6" target="TdoCK_8WhqVqBl0hMc1Z-6" edge="1">
          <mxGeometry width="50" height="50" relative="1" as="geometry">
            <mxPoint x="170" y="310" as="sourcePoint" />
            <mxPoint x="220" y="260" as="targetPoint" />
          </mxGeometry>
        </mxCell>
        <mxCell id="TdoCK_8WhqVqBl0hMc1Z-9" value="" style="endArrow=none;html=1;rounded=0;exitX=1;exitY=1;exitDx=0;exitDy=0;entryX=0;entryY=0.5;entryDx=0;entryDy=0;" parent="1" source="TdoCK_8WhqVqBl0hMc1Z-6" target="TdoCK_8WhqVqBl0hMc1Z-6" edge="1">
          <mxGeometry width="50" height="50" relative="1" as="geometry">
            <mxPoint x="100" y="320" as="sourcePoint" />
            <mxPoint x="100" y="270" as="targetPoint" />
          </mxGeometry>
        </mxCell>
        <mxCell id="TdoCK_8WhqVqBl0hMc1Z-10" value="i = 0" style="text;html=1;strokeColor=none;fillColor=none;align=center;verticalAlign=middle;whiteSpace=wrap;rounded=0;" parent="1" vertex="1">
          <mxGeometry x="95" y="240" width="50" height="30" as="geometry" />
        </mxCell>
        <mxCell id="TdoCK_8WhqVqBl0hMc1Z-11" value="i ++" style="text;html=1;strokeColor=none;fillColor=none;align=center;verticalAlign=middle;whiteSpace=wrap;rounded=0;" parent="1" vertex="1">
          <mxGeometry x="95" y="270" width="50" height="30" as="geometry" />
        </mxCell>
        <mxCell id="TdoCK_8WhqVqBl0hMc1Z-19" value="temp = 0&lt;br&gt;num = 1&lt;br&gt;den = 1" style="rounded=1;whiteSpace=wrap;html=1;" parent="1" vertex="1">
          <mxGeometry x="140" y="324.76" width="120" height="60" as="geometry" />
        </mxCell>
        <mxCell id="TdoCK_8WhqVqBl0hMc1Z-33" value="function calc(base, xi, index)&lt;br&gt;inicio" style="ellipse;whiteSpace=wrap;html=1;" parent="1" vertex="1">
          <mxGeometry x="490" y="50" width="160" height="80" as="geometry" />
        </mxCell>
        <mxCell id="TdoCK_8WhqVqBl0hMc1Z-34" value="j &amp;lt; n" style="whiteSpace=wrap;html=1;rounded=0;" parent="1" vertex="1">
          <mxGeometry x="510" y="194.76" width="120" height="60" as="geometry" />
        </mxCell>
        <mxCell id="TdoCK_8WhqVqBl0hMc1Z-35" value="" style="endArrow=none;html=1;rounded=0;entryX=1;entryY=0;entryDx=0;entryDy=0;exitX=0;exitY=0.5;exitDx=0;exitDy=0;" parent="1" source="TdoCK_8WhqVqBl0hMc1Z-34" target="TdoCK_8WhqVqBl0hMc1Z-34" edge="1">
          <mxGeometry width="50" height="50" relative="1" as="geometry">
            <mxPoint x="580" y="264.76" as="sourcePoint" />
            <mxPoint x="630" y="214.76" as="targetPoint" />
          </mxGeometry>
        </mxCell>
        <mxCell id="TdoCK_8WhqVqBl0hMc1Z-36" value="" style="endArrow=none;html=1;rounded=0;exitX=1;exitY=1;exitDx=0;exitDy=0;entryX=0;entryY=0.5;entryDx=0;entryDy=0;" parent="1" source="TdoCK_8WhqVqBl0hMc1Z-34" target="TdoCK_8WhqVqBl0hMc1Z-34" edge="1">
          <mxGeometry width="50" height="50" relative="1" as="geometry">
            <mxPoint x="510" y="274.76" as="sourcePoint" />
            <mxPoint x="510" y="224.76" as="targetPoint" />
          </mxGeometry>
        </mxCell>
        <mxCell id="TdoCK_8WhqVqBl0hMc1Z-37" value="j = 0" style="text;html=1;strokeColor=none;fillColor=none;align=center;verticalAlign=middle;whiteSpace=wrap;rounded=0;" parent="1" vertex="1">
          <mxGeometry x="505" y="194.76" width="50" height="30" as="geometry" />
        </mxCell>
        <mxCell id="TdoCK_8WhqVqBl0hMc1Z-38" value="j ++" style="text;html=1;strokeColor=none;fillColor=none;align=center;verticalAlign=middle;whiteSpace=wrap;rounded=0;" parent="1" vertex="1">
          <mxGeometry x="505" y="224.76" width="50" height="30" as="geometry" />
        </mxCell>
        <mxCell id="TdoCK_8WhqVqBl0hMc1Z-39" value="" style="edgeStyle=orthogonalEdgeStyle;rounded=0;orthogonalLoop=1;jettySize=auto;html=1;" parent="1" source="TdoCK_8WhqVqBl0hMc1Z-40" target="TdoCK_8WhqVqBl0hMc1Z-46" edge="1">
          <mxGeometry relative="1" as="geometry" />
        </mxCell>
        <mxCell id="TdoCK_8WhqVqBl0hMc1Z-40" value="if index !== j" style="rhombus;whiteSpace=wrap;html=1;" parent="1" vertex="1">
          <mxGeometry x="530" y="274.76" width="80" height="50" as="geometry" />
        </mxCell>
        <mxCell id="TdoCK_8WhqVqBl0hMc1Z-41" value="" style="endArrow=none;html=1;rounded=0;exitX=0;exitY=0.5;exitDx=0;exitDy=0;" parent="1" source="TdoCK_8WhqVqBl0hMc1Z-40" edge="1">
          <mxGeometry width="50" height="50" relative="1" as="geometry">
            <mxPoint x="640" y="334.76" as="sourcePoint" />
            <mxPoint x="490" y="299.76" as="targetPoint" />
          </mxGeometry>
        </mxCell>
        <mxCell id="TdoCK_8WhqVqBl0hMc1Z-42" value="" style="endArrow=none;html=1;rounded=0;" parent="1" edge="1">
          <mxGeometry width="50" height="50" relative="1" as="geometry">
            <mxPoint x="490" y="304.76" as="sourcePoint" />
            <mxPoint x="490" y="224.76" as="targetPoint" />
          </mxGeometry>
        </mxCell>
        <mxCell id="TdoCK_8WhqVqBl0hMc1Z-43" value="" style="endArrow=classic;html=1;rounded=0;entryX=0.136;entryY=-0.013;entryDx=0;entryDy=0;entryPerimeter=0;" parent="1" target="TdoCK_8WhqVqBl0hMc1Z-38" edge="1">
          <mxGeometry width="50" height="50" relative="1" as="geometry">
            <mxPoint x="490" y="224.76" as="sourcePoint" />
            <mxPoint x="540" y="174.76" as="targetPoint" />
          </mxGeometry>
        </mxCell>
        <mxCell id="TdoCK_8WhqVqBl0hMc1Z-44" value="F" style="text;html=1;strokeColor=none;fillColor=none;align=center;verticalAlign=middle;whiteSpace=wrap;rounded=0;" parent="1" vertex="1">
          <mxGeometry x="495" y="274.76" width="60" height="30" as="geometry" />
        </mxCell>
        <mxCell id="TdoCK_8WhqVqBl0hMc1Z-45" value="V" style="text;html=1;strokeColor=none;fillColor=none;align=center;verticalAlign=middle;whiteSpace=wrap;rounded=0;" parent="1" vertex="1">
          <mxGeometry x="550" y="314.76" width="60" height="30" as="geometry" />
        </mxCell>
        <mxCell id="TdoCK_8WhqVqBl0hMc1Z-46" value="temp *= (base - xi[j])" style="whiteSpace=wrap;html=1;" parent="1" vertex="1">
          <mxGeometry x="510" y="344.76" width="120" height="20" as="geometry" />
        </mxCell>
        <mxCell id="TdoCK_8WhqVqBl0hMc1Z-47" value="" style="endArrow=none;html=1;rounded=0;exitX=0.5;exitY=1;exitDx=0;exitDy=0;" parent="1" source="TdoCK_8WhqVqBl0hMc1Z-46" edge="1">
          <mxGeometry width="50" height="50" relative="1" as="geometry">
            <mxPoint x="640" y="334.76" as="sourcePoint" />
            <mxPoint x="570" y="374.76" as="targetPoint" />
          </mxGeometry>
        </mxCell>
        <mxCell id="TdoCK_8WhqVqBl0hMc1Z-48" value="" style="endArrow=none;html=1;rounded=0;" parent="1" edge="1">
          <mxGeometry width="50" height="50" relative="1" as="geometry">
            <mxPoint x="490" y="374.76" as="sourcePoint" />
            <mxPoint x="570" y="374.76" as="targetPoint" />
          </mxGeometry>
        </mxCell>
        <mxCell id="TdoCK_8WhqVqBl0hMc1Z-49" value="" style="endArrow=none;html=1;rounded=0;" parent="1" edge="1">
          <mxGeometry width="50" height="50" relative="1" as="geometry">
            <mxPoint x="490" y="374.76" as="sourcePoint" />
            <mxPoint x="490" y="304.76" as="targetPoint" />
          </mxGeometry>
        </mxCell>
        <mxCell id="TdoCK_8WhqVqBl0hMc1Z-52" value="" style="endArrow=classic;html=1;rounded=0;exitX=1;exitY=0.5;exitDx=0;exitDy=0;entryX=0;entryY=0.5;entryDx=0;entryDy=0;" parent="1" source="TdoCK_8WhqVqBl0hMc1Z-34" target="TdoCK_8WhqVqBl0hMc1Z-53" edge="1">
          <mxGeometry width="50" height="50" relative="1" as="geometry">
            <mxPoint x="665" y="224.93" as="sourcePoint" />
            <mxPoint x="665" y="198.93" as="targetPoint" />
          </mxGeometry>
        </mxCell>
        <mxCell id="TdoCK_8WhqVqBl0hMc1Z-53" value="return temp" style="ellipse;whiteSpace=wrap;html=1;" parent="1" vertex="1">
          <mxGeometry x="665" y="199.76000000000002" width="110" height="50" as="geometry" />
        </mxCell>
        <mxCell id="TdoCK_8WhqVqBl0hMc1Z-54" value="temp = 1" style="rounded=1;whiteSpace=wrap;html=1;" parent="1" vertex="1">
          <mxGeometry x="510" y="150" width="120" height="20" as="geometry" />
        </mxCell>
        <mxCell id="TdoCK_8WhqVqBl0hMc1Z-56" value="" style="endArrow=classic;html=1;rounded=0;exitX=0.5;exitY=1;exitDx=0;exitDy=0;entryX=0.5;entryY=0;entryDx=0;entryDy=0;" parent="1" source="TdoCK_8WhqVqBl0hMc1Z-33" target="TdoCK_8WhqVqBl0hMc1Z-54" edge="1">
          <mxGeometry width="50" height="50" relative="1" as="geometry">
            <mxPoint x="555" y="150" as="sourcePoint" />
            <mxPoint x="605" y="100" as="targetPoint" />
          </mxGeometry>
        </mxCell>
        <mxCell id="TdoCK_8WhqVqBl0hMc1Z-57" value="" style="endArrow=classic;html=1;rounded=0;exitX=0.5;exitY=1;exitDx=0;exitDy=0;entryX=0.5;entryY=0;entryDx=0;entryDy=0;" parent="1" source="TdoCK_8WhqVqBl0hMc1Z-54" target="TdoCK_8WhqVqBl0hMc1Z-34" edge="1">
          <mxGeometry width="50" height="50" relative="1" as="geometry">
            <mxPoint x="560" y="189.85" as="sourcePoint" />
            <mxPoint x="695" y="139.85" as="targetPoint" />
          </mxGeometry>
        </mxCell>
        <mxCell id="TdoCK_8WhqVqBl0hMc1Z-58" value="num = calc(x0, xi, i)" style="rounded=0;whiteSpace=wrap;html=1;" parent="1" vertex="1">
          <mxGeometry x="140" y="410" width="120" height="30" as="geometry" />
        </mxCell>
        <mxCell id="EYsyaa87ww60cJTY5XAq-5" value="" style="edgeStyle=orthogonalEdgeStyle;rounded=0;orthogonalLoop=1;jettySize=auto;html=1;entryX=0.391;entryY=0;entryDx=0;entryDy=0;entryPerimeter=0;" edge="1" parent="1" source="TdoCK_8WhqVqBl0hMc1Z-59" target="TdoCK_8WhqVqBl0hMc1Z-60">
          <mxGeometry relative="1" as="geometry">
            <Array as="points">
              <mxPoint x="200" y="510" />
              <mxPoint x="201" y="510" />
            </Array>
          </mxGeometry>
        </mxCell>
        <mxCell id="TdoCK_8WhqVqBl0hMc1Z-59" value="den = calc(xi[i], xi, i)" style="rounded=0;whiteSpace=wrap;html=1;" parent="1" vertex="1">
          <mxGeometry x="140" y="467" width="120" height="30" as="geometry" />
        </mxCell>
        <mxCell id="EYsyaa87ww60cJTY5XAq-6" value="" style="edgeStyle=orthogonalEdgeStyle;rounded=0;orthogonalLoop=1;jettySize=auto;html=1;" edge="1" parent="1" target="EYsyaa87ww60cJTY5XAq-1">
          <mxGeometry relative="1" as="geometry">
            <mxPoint x="200" y="550" as="sourcePoint" />
          </mxGeometry>
        </mxCell>
        <mxCell id="TdoCK_8WhqVqBl0hMc1Z-60" value="temp = yi[i] * (num / den)" style="whiteSpace=wrap;html=1;rounded=0;" parent="1" vertex="1">
          <mxGeometry x="140" y="520" width="155" height="30" as="geometry" />
        </mxCell>
        <mxCell id="EYsyaa87ww60cJTY5XAq-1" value="total_sum += temp" style="rounded=1;whiteSpace=wrap;html=1;" vertex="1" parent="1">
          <mxGeometry x="140" y="580" width="120" height="50" as="geometry" />
        </mxCell>
        <mxCell id="EYsyaa87ww60cJTY5XAq-2" value="" style="endArrow=classic;html=1;rounded=0;exitX=0.83;exitY=0.986;exitDx=0;exitDy=0;exitPerimeter=0;" edge="1" parent="1" source="TdoCK_8WhqVqBl0hMc1Z-6" target="TdoCK_8WhqVqBl0hMc1Z-19">
          <mxGeometry width="50" height="50" relative="1" as="geometry">
            <mxPoint x="270" y="370" as="sourcePoint" />
            <mxPoint x="320" y="320" as="targetPoint" />
          </mxGeometry>
        </mxCell>
        <mxCell id="EYsyaa87ww60cJTY5XAq-3" value="" style="endArrow=classic;html=1;rounded=0;exitX=0.83;exitY=0.986;exitDx=0;exitDy=0;exitPerimeter=0;" edge="1" parent="1">
          <mxGeometry width="50" height="50" relative="1" as="geometry">
            <mxPoint x="199.8" y="384.7600000000001" as="sourcePoint" />
            <mxPoint x="199.98417266187056" y="410.36" as="targetPoint" />
          </mxGeometry>
        </mxCell>
        <mxCell id="EYsyaa87ww60cJTY5XAq-4" value="" style="endArrow=classic;html=1;rounded=0;exitX=0.83;exitY=0.986;exitDx=0;exitDy=0;exitPerimeter=0;" edge="1" parent="1">
          <mxGeometry width="50" height="50" relative="1" as="geometry">
            <mxPoint x="199.79999999999995" y="440.0000000000001" as="sourcePoint" />
            <mxPoint x="199.98417266187062" y="465.6" as="targetPoint" />
          </mxGeometry>
        </mxCell>
        <mxCell id="EYsyaa87ww60cJTY5XAq-7" value="" style="endArrow=none;html=1;rounded=0;" edge="1" parent="1">
          <mxGeometry width="50" height="50" relative="1" as="geometry">
            <mxPoint x="200" y="660" as="sourcePoint" />
            <mxPoint x="200" y="630" as="targetPoint" />
          </mxGeometry>
        </mxCell>
        <mxCell id="EYsyaa87ww60cJTY5XAq-8" value="" style="endArrow=none;html=1;rounded=0;" edge="1" parent="1">
          <mxGeometry width="50" height="50" relative="1" as="geometry">
            <mxPoint x="80" y="660" as="sourcePoint" />
            <mxPoint x="200" y="660" as="targetPoint" />
          </mxGeometry>
        </mxCell>
        <mxCell id="EYsyaa87ww60cJTY5XAq-9" value="" style="endArrow=none;html=1;rounded=0;" edge="1" parent="1">
          <mxGeometry width="50" height="50" relative="1" as="geometry">
            <mxPoint x="80" y="660" as="sourcePoint" />
            <mxPoint x="80" y="270" as="targetPoint" />
          </mxGeometry>
        </mxCell>
        <mxCell id="EYsyaa87ww60cJTY5XAq-10" value="" style="endArrow=classic;html=1;rounded=0;entryX=0.141;entryY=-0.029;entryDx=0;entryDy=0;entryPerimeter=0;" edge="1" parent="1" target="TdoCK_8WhqVqBl0hMc1Z-11">
          <mxGeometry width="50" height="50" relative="1" as="geometry">
            <mxPoint x="80" y="270" as="sourcePoint" />
            <mxPoint x="120" y="240" as="targetPoint" />
          </mxGeometry>
        </mxCell>
        <mxCell id="EYsyaa87ww60cJTY5XAq-11" value="" style="endArrow=none;html=1;rounded=0;exitX=1.017;exitY=0.438;exitDx=0;exitDy=0;exitPerimeter=0;" edge="1" parent="1" source="TdoCK_8WhqVqBl0hMc1Z-6">
          <mxGeometry width="50" height="50" relative="1" as="geometry">
            <mxPoint x="270" y="270" as="sourcePoint" />
            <mxPoint x="360" y="270" as="targetPoint" />
          </mxGeometry>
        </mxCell>
        <mxCell id="EYsyaa87ww60cJTY5XAq-14" value="" style="edgeStyle=orthogonalEdgeStyle;rounded=0;orthogonalLoop=1;jettySize=auto;html=1;" edge="1" parent="1" target="OZUVgrPeMeW1dvuewmTe-2">
          <mxGeometry relative="1" as="geometry">
            <mxPoint x="360" y="270" as="sourcePoint" />
          </mxGeometry>
        </mxCell>
        <mxCell id="EYsyaa87ww60cJTY5XAq-12" value="total_sum" style="shape=document;whiteSpace=wrap;html=1;boundedLbl=1;" vertex="1" parent="1">
          <mxGeometry x="305" y="300" width="120" height="80" as="geometry" />
        </mxCell>
        <mxCell id="EYsyaa87ww60cJTY5XAq-13" value="" style="endArrow=classic;html=1;rounded=0;" edge="1" parent="1">
          <mxGeometry width="50" height="50" relative="1" as="geometry">
            <mxPoint x="360" y="270" as="sourcePoint" />
            <mxPoint x="360" y="300" as="targetPoint" />
          </mxGeometry>
        </mxCell>
      </root>
    </mxGraphModel>
  </diagram>
</mxfile>
